<svg width="63" height="61" viewBox="0 0 63 61" fill="none" xmlns="http://www.w3.org/2000/svg">
<path d="M15.2069 0.00480951C11.6159 0.00480951 8.68966 2.93105 8.68966 6.52205V41.2807H1.08621C0.798127 41.2807 0.521846 41.3951 0.318143 41.5988C0.11444 41.8025 0 42.0788 0 42.3669V45.6255C0 50.42 3.89514 54.3152 8.68966 54.3152H30.4138V59.7462C30.4138 60.0343 30.5282 60.3106 30.7319 60.5143C30.9356 60.718 31.2119 60.8324 31.5 60.8324H61.9138C62.2019 60.8324 62.4782 60.718 62.6819 60.5143C62.8856 60.3106 63 60.0343 63 59.7462V20.6427C63 20.3547 62.8856 20.0784 62.6819 19.8747C62.4782 19.671 62.2019 19.5565 61.9138 19.5565H49.9655V6.5894C49.9655 2.97015 47.048 0.00480951 43.4483 0.00480951C43.331 0.00480951 43.2245 -0.00170773 43.1094 0.00480951C43.0415 -0.00160317 42.9731 -0.00160317 42.9052 0.00480951H15.2069ZM15.2069 2.17722H38.6277C37.5301 3.3839 36.9247 4.95821 36.931 6.5894V19.5565H31.5C31.2119 19.5565 30.9356 19.671 30.7319 19.8747C30.5282 20.0784 30.4138 20.3547 30.4138 20.6427V41.2133L10.8621 41.2807V6.52205C10.8621 4.09546 12.7803 2.17722 15.2069 2.17722ZM43.042 2.17722C43.1767 2.16419 43.3092 2.17722 43.4483 2.17722C45.8662 2.17722 47.7931 4.12371 47.7931 6.5894V19.5565H39.1034V6.5894C39.1034 4.26491 40.8197 2.3836 43.042 2.17722ZM13.0345 6.52205V8.69446H15.2069V6.52205H13.0345ZM17.3793 6.52205V8.69446H34.7586V6.52205H17.3793ZM13.0345 10.8669V13.0393H15.2069V10.8669H13.0345ZM17.3793 10.8669V13.0393H34.7586V10.8669H17.3793ZM13.0345 15.2117V17.3841H15.2069V15.2117H13.0345ZM17.3793 15.2117V17.3841H34.7586V15.2117H17.3793ZM13.0345 19.5565V21.7289H15.2069V19.5565H13.0345ZM17.3793 19.5565V21.7289H28.2414V19.5565H17.3793ZM32.5862 21.7289H60.8276V58.66H32.5862V53.4332C32.5926 53.3652 32.5926 53.2969 32.5862 53.229V42.2995C32.5926 42.2316 32.5926 42.1632 32.5862 42.0953V21.7289ZM34.4197 22.8152C34.1933 22.8892 33.9975 23.0356 33.8624 23.2319C33.7274 23.4282 33.6606 23.6634 33.6724 23.9014V30.4186C33.6724 30.7067 33.7869 30.983 33.9906 31.1867C34.1943 31.3904 34.4705 31.5048 34.7586 31.5048H58.6552C58.9433 31.5048 59.2195 31.3904 59.4232 31.1867C59.6269 30.983 59.7414 30.7067 59.7414 30.4186V23.9014C59.7414 23.6133 59.6269 23.337 59.4232 23.1333C59.2195 22.9296 58.9433 22.8152 58.6552 22.8152H34.7586C34.6464 22.7974 34.532 22.7974 34.4197 22.8152ZM13.0345 23.9014V26.0738H15.2069V23.9014H13.0345ZM17.3793 23.9014V26.0738H28.2414V23.9014H17.3793ZM35.8448 24.9876H57.569V29.3324H35.8448V24.9876ZM19.5517 28.2462V30.4186H28.2414V28.2462H19.5517ZM19.5517 32.591V34.7634H28.2414V32.591H19.5517ZM35.6406 32.591C35.3892 32.6391 35.1628 32.7745 35.0014 32.9732C34.8401 33.1719 34.7541 33.4213 34.7586 33.6772V38.0221C34.7586 38.3101 34.8731 38.5864 35.0768 38.7901C35.2805 38.9938 35.5567 39.1083 35.8448 39.1083H40.1897C40.4777 39.1083 40.754 38.9938 40.9577 38.7901C41.1614 38.5864 41.2759 38.3101 41.2759 38.0221V33.6772C41.2759 33.3891 41.1614 33.1129 40.9577 32.9092C40.754 32.7055 40.4777 32.591 40.1897 32.591H35.8448C35.7769 32.5846 35.7085 32.5846 35.6406 32.591ZM44.3303 32.591C44.0788 32.6391 43.8525 32.7745 43.6911 32.9732C43.5297 33.1719 43.4437 33.4213 43.4483 33.6772V38.0221C43.4483 38.3101 43.5627 38.5864 43.7664 38.7901C43.9701 38.9938 44.2464 39.1083 44.5345 39.1083H48.8793C49.1674 39.1083 49.4437 38.9938 49.6474 38.7901C49.8511 38.5864 49.9655 38.3101 49.9655 38.0221V33.6772C49.9655 33.3891 49.8511 33.1129 49.6474 32.9092C49.4437 32.7055 49.1674 32.591 48.8793 32.591H44.5345C44.4666 32.5846 44.3982 32.5846 44.3303 32.591ZM53.0199 32.591C52.7685 32.6391 52.5421 32.7745 52.3807 32.9732C52.2194 33.1719 52.1334 33.4213 52.1379 33.6772V38.0221C52.1379 38.3101 52.2524 38.5864 52.4561 38.7901C52.6598 38.9938 52.9361 39.1083 53.2241 39.1083H57.569C57.857 39.1083 58.1333 38.9938 58.337 38.7901C58.5407 38.5864 58.6552 38.3101 58.6552 38.0221V33.6772C58.6552 33.3891 58.5407 33.1129 58.337 32.9092C58.1333 32.7055 57.857 32.591 57.569 32.591H53.2241C53.1562 32.5846 53.0878 32.5846 53.0199 32.591ZM36.931 34.7634H39.1034V36.9358H36.931V34.7634ZM45.6207 34.7634H47.7931V36.9358H45.6207V34.7634ZM54.3103 34.7634H56.4828V36.9358H54.3103V34.7634ZM35.6406 41.2807C35.3892 41.3288 35.1628 41.4641 35.0014 41.6628C34.8401 41.8616 34.7541 42.1109 34.7586 42.3669V46.7117C34.7586 46.9998 34.8731 47.2761 35.0768 47.4798C35.2805 47.6835 35.5567 47.7979 35.8448 47.7979H40.1897C40.4777 47.7979 40.754 47.6835 40.9577 47.4798C41.1614 47.2761 41.2759 46.9998 41.2759 46.7117V42.3669C41.2759 42.0788 41.1614 41.8025 40.9577 41.5988C40.754 41.3951 40.4777 41.2807 40.1897 41.2807H35.8448C35.7769 41.2743 35.7085 41.2743 35.6406 41.2807ZM44.3303 41.2807C44.0788 41.3288 43.8525 41.4641 43.6911 41.6628C43.5297 41.8616 43.4437 42.1109 43.4483 42.3669V46.7117C43.4483 46.9998 43.5627 47.2761 43.7664 47.4798C43.9701 47.6835 44.2464 47.7979 44.5345 47.7979H48.8793C49.1674 47.7979 49.4437 47.6835 49.6474 47.4798C49.8511 47.2761 49.9655 46.9998 49.9655 46.7117V42.3669C49.9655 42.0788 49.8511 41.8025 49.6474 41.5988C49.4437 41.3951 49.1674 41.2807 48.8793 41.2807H44.5345C44.4666 41.2743 44.3982 41.2743 44.3303 41.2807ZM53.0199 41.2807C52.7685 41.3288 52.5421 41.4641 52.3807 41.6628C52.2194 41.8616 52.1334 42.1109 52.1379 42.3669V55.4014C52.1379 55.6894 52.2524 55.9657 52.4561 56.1694C52.6598 56.3731 52.9361 56.4876 53.2241 56.4876H57.569C57.857 56.4876 58.1333 56.3731 58.337 56.1694C58.5407 55.9657 58.6552 55.6894 58.6552 55.4014V42.3669C58.6552 42.0788 58.5407 41.8025 58.337 41.5988C58.1333 41.3951 57.857 41.2807 57.569 41.2807H53.2241C53.1562 41.2743 53.0878 41.2743 53.0199 41.2807ZM30.4138 43.3857V52.1427H8.68966C5.06172 52.1427 2.17241 49.2534 2.17241 45.6255V43.4531L30.4138 43.3857ZM36.931 43.4531H39.1034V45.6255H36.931V43.4531ZM45.6207 43.4531H47.7931V45.6255H45.6207V43.4531ZM54.3103 43.4531H56.4828V54.3152H54.3103V43.4531ZM35.6406 49.9703C35.3892 50.0184 35.1628 50.1538 35.0014 50.3525C34.8401 50.5512 34.7541 50.8006 34.7586 51.0565V55.4014C34.7586 55.6894 34.8731 55.9657 35.0768 56.1694C35.2805 56.3731 35.5567 56.4876 35.8448 56.4876H40.1897C40.4777 56.4876 40.754 56.3731 40.9577 56.1694C41.1614 55.9657 41.2759 55.6894 41.2759 55.4014V51.0565C41.2759 50.7685 41.1614 50.4922 40.9577 50.2885C40.754 50.0848 40.4777 49.9703 40.1897 49.9703H35.8448C35.7769 49.9639 35.7085 49.9639 35.6406 49.9703ZM44.3303 49.9703C44.0788 50.0184 43.8525 50.1538 43.6911 50.3525C43.5297 50.5512 43.4437 50.8006 43.4483 51.0565V55.4014C43.4483 55.6894 43.5627 55.9657 43.7664 56.1694C43.9701 56.3731 44.2464 56.4876 44.5345 56.4876H48.8793C49.1674 56.4876 49.4437 56.3731 49.6474 56.1694C49.8511 55.9657 49.9655 55.6894 49.9655 55.4014V51.0565C49.9655 50.7685 49.8511 50.4922 49.6474 50.2885C49.4437 50.0848 49.1674 49.9703 48.8793 49.9703H44.5345C44.4666 49.9639 44.3982 49.9639 44.3303 49.9703ZM36.931 52.1427H39.1034V54.3152H36.931V52.1427ZM45.6207 52.1427H47.7931V54.3152H45.6207V52.1427Z" fill="white"/>
</svg>
