<svg xmlns="http://www.w3.org/2000/svg" xmlns:xlink="http://www.w3.org/1999/xlink" width="1080" zoomAndPan="magnify" viewBox="0 0 810 809.999993" height="1080" preserveAspectRatio="xMidYMid meet" version="1.0"><defs><g/><clipPath id="efa7a7d7d0"><path d="M 65 298.652344 L 207 298.652344 L 207 358 L 65 358 Z M 65 298.652344 " clip-rule="nonzero"/></clipPath><clipPath id="8d7dfbffe2"><path d="M 16.207031 348 L 243 348 L 243 511.09375 L 16.207031 511.09375 Z M 16.207031 348 " clip-rule="nonzero"/></clipPath><clipPath id="6a21b5c50e"><path d="M 147 399 L 255.933594 399 L 255.933594 461 L 147 461 Z M 147 399 " clip-rule="nonzero"/></clipPath><clipPath id="88b6f395f6"><path d="M 68 301 L 204 301 L 204 349.328125 L 68 349.328125 Z M 68 301 " clip-rule="nonzero"/></clipPath><clipPath id="305fe45afb"><path d="M 65 298.652344 L 207 298.652344 L 207 349.328125 L 65 349.328125 Z M 65 298.652344 " clip-rule="nonzero"/></clipPath><clipPath id="cbb82f2dd1"><path d="M 122 328 L 165 328 L 165 349.328125 L 122 349.328125 Z M 122 328 " clip-rule="nonzero"/></clipPath><clipPath id="63aef0351e"><path d="M 120 326 L 168 326 L 168 349.328125 L 120 349.328125 Z M 120 326 " clip-rule="nonzero"/></clipPath><clipPath id="f1be40b8d1"><path d="M 16.207031 348 L 243 348 L 243 349.328125 L 16.207031 349.328125 Z M 16.207031 348 " clip-rule="nonzero"/></clipPath><clipPath id="a971668ea1"><path d="M 162.890625 418.710938 L 185.511719 418.710938 L 185.511719 441.332031 L 162.890625 441.332031 Z M 162.890625 418.710938 " clip-rule="nonzero"/></clipPath><clipPath id="4fac08a834"><path d="M 174.203125 418.710938 C 167.957031 418.710938 162.890625 423.777344 162.890625 430.023438 C 162.890625 436.269531 167.957031 441.332031 174.203125 441.332031 C 180.449219 441.332031 185.511719 436.269531 185.511719 430.023438 C 185.511719 423.777344 180.449219 418.710938 174.203125 418.710938 Z M 174.203125 418.710938 " clip-rule="nonzero"/></clipPath><radialGradient gradientTransform="matrix(1, 0, 0, 1, 162.892168, 418.711686)" gradientUnits="userSpaceOnUse" r="15.995322" cx="11.310422" id="b9a5e6dec3" cy="11.310422" fx="11.310422" fy="11.310422"><stop stop-opacity="1" stop-color="rgb(99.862671%, 99.862671%, 99.862671%)" offset="0"/><stop stop-opacity="1" stop-color="rgb(99.658203%, 99.658203%, 99.658203%)" offset="0.0078125"/><stop stop-opacity="1" stop-color="rgb(99.520874%, 99.520874%, 99.520874%)" offset="0.0117188"/><stop stop-opacity="1" stop-color="rgb(99.385071%, 99.385071%, 99.385071%)" offset="0.015625"/><stop stop-opacity="1" stop-color="rgb(99.249268%, 99.249268%, 99.249268%)" offset="0.0195312"/><stop stop-opacity="1" stop-color="rgb(99.111938%, 99.111938%, 99.111938%)" offset="0.0234375"/><stop stop-opacity="1" stop-color="rgb(98.976135%, 98.976135%, 98.976135%)" offset="0.0273438"/><stop stop-opacity="1" stop-color="rgb(98.840332%, 98.840332%, 98.840332%)" offset="0.03125"/><stop stop-opacity="1" stop-color="rgb(98.703003%, 98.703003%, 98.703003%)" offset="0.0351562"/><stop stop-opacity="1" stop-color="rgb(98.5672%, 98.5672%, 98.5672%)" offset="0.0390625"/><stop stop-opacity="1" stop-color="rgb(98.431396%, 98.431396%, 98.431396%)" offset="0.0429688"/><stop stop-opacity="1" stop-color="rgb(98.294067%, 98.294067%, 98.294067%)" offset="0.046875"/><stop stop-opacity="1" stop-color="rgb(98.158264%, 98.158264%, 98.158264%)" offset="0.0507812"/><stop stop-opacity="1" stop-color="rgb(98.022461%, 98.022461%, 98.022461%)" offset="0.0546875"/><stop stop-opacity="1" stop-color="rgb(97.885132%, 97.885132%, 97.885132%)" offset="0.0585938"/><stop stop-opacity="1" stop-color="rgb(97.749329%, 97.749329%, 97.749329%)" offset="0.0625"/><stop stop-opacity="1" stop-color="rgb(97.613525%, 97.613525%, 97.613525%)" offset="0.0664062"/><stop stop-opacity="1" stop-color="rgb(97.476196%, 97.476196%, 97.476196%)" offset="0.0703125"/><stop stop-opacity="1" stop-color="rgb(97.340393%, 97.340393%, 97.340393%)" offset="0.0742188"/><stop stop-opacity="1" stop-color="rgb(97.20459%, 97.20459%, 97.20459%)" offset="0.078125"/><stop stop-opacity="1" stop-color="rgb(97.067261%, 97.067261%, 97.067261%)" offset="0.0820312"/><stop stop-opacity="1" stop-color="rgb(96.931458%, 96.931458%, 96.931458%)" offset="0.0859375"/><stop stop-opacity="1" stop-color="rgb(96.795654%, 96.795654%, 96.795654%)" offset="0.0898438"/><stop stop-opacity="1" stop-color="rgb(96.658325%, 96.658325%, 96.658325%)" offset="0.09375"/><stop stop-opacity="1" stop-color="rgb(96.522522%, 96.522522%, 96.522522%)" offset="0.0976562"/><stop stop-opacity="1" stop-color="rgb(96.386719%, 96.386719%, 96.386719%)" offset="0.101562"/><stop stop-opacity="1" stop-color="rgb(96.24939%, 96.24939%, 96.24939%)" offset="0.105469"/><stop stop-opacity="1" stop-color="rgb(96.113586%, 96.113586%, 96.113586%)" offset="0.109375"/><stop stop-opacity="1" stop-color="rgb(95.977783%, 95.977783%, 95.977783%)" offset="0.113281"/><stop stop-opacity="1" stop-color="rgb(95.840454%, 95.840454%, 95.840454%)" offset="0.117188"/><stop stop-opacity="1" stop-color="rgb(95.704651%, 95.704651%, 95.704651%)" offset="0.121094"/><stop stop-opacity="1" stop-color="rgb(95.567322%, 95.567322%, 95.567322%)" offset="0.125"/><stop stop-opacity="1" stop-color="rgb(95.431519%, 95.431519%, 95.431519%)" offset="0.128906"/><stop stop-opacity="1" stop-color="rgb(95.295715%, 95.295715%, 95.295715%)" offset="0.132812"/><stop stop-opacity="1" stop-color="rgb(95.158386%, 95.158386%, 95.158386%)" offset="0.136719"/><stop stop-opacity="1" stop-color="rgb(95.022583%, 95.022583%, 95.022583%)" offset="0.140625"/><stop stop-opacity="1" stop-color="rgb(94.88678%, 94.88678%, 94.88678%)" offset="0.144531"/><stop stop-opacity="1" stop-color="rgb(94.749451%, 94.749451%, 94.749451%)" offset="0.148438"/><stop stop-opacity="1" stop-color="rgb(94.613647%, 94.613647%, 94.613647%)" offset="0.152344"/><stop stop-opacity="1" stop-color="rgb(94.477844%, 94.477844%, 94.477844%)" offset="0.15625"/><stop stop-opacity="1" stop-color="rgb(94.340515%, 94.340515%, 94.340515%)" offset="0.160156"/><stop stop-opacity="1" stop-color="rgb(94.204712%, 94.204712%, 94.204712%)" offset="0.164062"/><stop stop-opacity="1" stop-color="rgb(94.068909%, 94.068909%, 94.068909%)" offset="0.167969"/><stop stop-opacity="1" stop-color="rgb(93.93158%, 93.93158%, 93.93158%)" offset="0.171875"/><stop stop-opacity="1" stop-color="rgb(93.795776%, 93.795776%, 93.795776%)" offset="0.175781"/><stop stop-opacity="1" stop-color="rgb(93.659973%, 93.659973%, 93.659973%)" offset="0.179688"/><stop stop-opacity="1" stop-color="rgb(93.522644%, 93.522644%, 93.522644%)" offset="0.183594"/><stop stop-opacity="1" stop-color="rgb(93.386841%, 93.386841%, 93.386841%)" offset="0.1875"/><stop stop-opacity="1" stop-color="rgb(93.251038%, 93.251038%, 93.251038%)" offset="0.191406"/><stop stop-opacity="1" stop-color="rgb(93.113708%, 93.113708%, 93.113708%)" offset="0.195312"/><stop stop-opacity="1" stop-color="rgb(92.977905%, 92.977905%, 92.977905%)" offset="0.199219"/><stop stop-opacity="1" stop-color="rgb(92.842102%, 92.842102%, 92.842102%)" offset="0.203125"/><stop stop-opacity="1" stop-color="rgb(92.704773%, 92.704773%, 92.704773%)" offset="0.207031"/><stop stop-opacity="1" stop-color="rgb(92.56897%, 92.56897%, 92.56897%)" offset="0.210938"/><stop stop-opacity="1" stop-color="rgb(92.433167%, 92.433167%, 92.433167%)" offset="0.214844"/><stop stop-opacity="1" stop-color="rgb(92.295837%, 92.295837%, 92.295837%)" offset="0.21875"/><stop stop-opacity="1" stop-color="rgb(92.160034%, 92.160034%, 92.160034%)" offset="0.222656"/><stop stop-opacity="1" stop-color="rgb(92.024231%, 92.024231%, 92.024231%)" offset="0.226562"/><stop stop-opacity="1" stop-color="rgb(91.886902%, 91.886902%, 91.886902%)" offset="0.230469"/><stop stop-opacity="1" stop-color="rgb(91.751099%, 91.751099%, 91.751099%)" offset="0.234375"/><stop stop-opacity="1" stop-color="rgb(91.615295%, 91.615295%, 91.615295%)" offset="0.238281"/><stop stop-opacity="1" stop-color="rgb(91.477966%, 91.477966%, 91.477966%)" offset="0.242188"/><stop stop-opacity="1" stop-color="rgb(91.342163%, 91.342163%, 91.342163%)" offset="0.246094"/><stop stop-opacity="1" stop-color="rgb(91.204834%, 91.204834%, 91.204834%)" offset="0.25"/><stop stop-opacity="1" stop-color="rgb(91.000366%, 91.000366%, 91.000366%)" offset="0.253906"/><stop stop-opacity="1" stop-color="rgb(90.72876%, 90.72876%, 90.72876%)" offset="0.261719"/><stop stop-opacity="1" stop-color="rgb(90.455627%, 90.455627%, 90.455627%)" offset="0.269531"/><stop stop-opacity="1" stop-color="rgb(90.182495%, 90.182495%, 90.182495%)" offset="0.277344"/><stop stop-opacity="1" stop-color="rgb(89.910889%, 89.910889%, 89.910889%)" offset="0.285156"/><stop stop-opacity="1" stop-color="rgb(89.637756%, 89.637756%, 89.637756%)" offset="0.292969"/><stop stop-opacity="1" stop-color="rgb(89.364624%, 89.364624%, 89.364624%)" offset="0.300781"/><stop stop-opacity="1" stop-color="rgb(89.093018%, 89.093018%, 89.093018%)" offset="0.308594"/><stop stop-opacity="1" stop-color="rgb(88.819885%, 88.819885%, 88.819885%)" offset="0.316406"/><stop stop-opacity="1" stop-color="rgb(88.546753%, 88.546753%, 88.546753%)" offset="0.324219"/><stop stop-opacity="1" stop-color="rgb(88.275146%, 88.275146%, 88.275146%)" offset="0.332031"/><stop stop-opacity="1" stop-color="rgb(88.002014%, 88.002014%, 88.002014%)" offset="0.339844"/><stop stop-opacity="1" stop-color="rgb(87.728882%, 87.728882%, 87.728882%)" offset="0.347656"/><stop stop-opacity="1" stop-color="rgb(87.457275%, 87.457275%, 87.457275%)" offset="0.355469"/><stop stop-opacity="1" stop-color="rgb(87.184143%, 87.184143%, 87.184143%)" offset="0.363281"/><stop stop-opacity="1" stop-color="rgb(86.911011%, 86.911011%, 86.911011%)" offset="0.371094"/><stop stop-opacity="1" stop-color="rgb(86.637878%, 86.637878%, 86.637878%)" offset="0.378906"/><stop stop-opacity="1" stop-color="rgb(86.366272%, 86.366272%, 86.366272%)" offset="0.386719"/><stop stop-opacity="1" stop-color="rgb(86.09314%, 86.09314%, 86.09314%)" offset="0.394531"/><stop stop-opacity="1" stop-color="rgb(85.820007%, 85.820007%, 85.820007%)" offset="0.402344"/><stop stop-opacity="1" stop-color="rgb(85.548401%, 85.548401%, 85.548401%)" offset="0.410156"/><stop stop-opacity="1" stop-color="rgb(85.275269%, 85.275269%, 85.275269%)" offset="0.417969"/><stop stop-opacity="1" stop-color="rgb(85.002136%, 85.002136%, 85.002136%)" offset="0.425781"/><stop stop-opacity="1" stop-color="rgb(84.73053%, 84.73053%, 84.73053%)" offset="0.433594"/><stop stop-opacity="1" stop-color="rgb(84.457397%, 84.457397%, 84.457397%)" offset="0.441406"/><stop stop-opacity="1" stop-color="rgb(84.184265%, 84.184265%, 84.184265%)" offset="0.449219"/><stop stop-opacity="1" stop-color="rgb(83.912659%, 83.912659%, 83.912659%)" offset="0.457031"/><stop stop-opacity="1" stop-color="rgb(83.639526%, 83.639526%, 83.639526%)" offset="0.464844"/><stop stop-opacity="1" stop-color="rgb(83.366394%, 83.366394%, 83.366394%)" offset="0.472656"/><stop stop-opacity="1" stop-color="rgb(83.094788%, 83.094788%, 83.094788%)" offset="0.480469"/><stop stop-opacity="1" stop-color="rgb(82.821655%, 82.821655%, 82.821655%)" offset="0.488281"/><stop stop-opacity="1" stop-color="rgb(82.548523%, 82.548523%, 82.548523%)" offset="0.496094"/><stop stop-opacity="1" stop-color="rgb(82.344055%, 82.344055%, 82.344055%)" offset="0.503906"/><stop stop-opacity="1" stop-color="rgb(82.208252%, 82.208252%, 82.208252%)" offset="0.507812"/><stop stop-opacity="1" stop-color="rgb(82.070923%, 82.070923%, 82.070923%)" offset="0.511719"/><stop stop-opacity="1" stop-color="rgb(81.93512%, 81.93512%, 81.93512%)" offset="0.515625"/><stop stop-opacity="1" stop-color="rgb(81.799316%, 81.799316%, 81.799316%)" offset="0.519531"/><stop stop-opacity="1" stop-color="rgb(81.661987%, 81.661987%, 81.661987%)" offset="0.523438"/><stop stop-opacity="1" stop-color="rgb(81.526184%, 81.526184%, 81.526184%)" offset="0.527344"/><stop stop-opacity="1" stop-color="rgb(81.390381%, 81.390381%, 81.390381%)" offset="0.53125"/><stop stop-opacity="1" stop-color="rgb(81.253052%, 81.253052%, 81.253052%)" offset="0.535156"/><stop stop-opacity="1" stop-color="rgb(81.117249%, 81.117249%, 81.117249%)" offset="0.539062"/><stop stop-opacity="1" stop-color="rgb(80.981445%, 80.981445%, 80.981445%)" offset="0.542969"/><stop stop-opacity="1" stop-color="rgb(80.844116%, 80.844116%, 80.844116%)" offset="0.546875"/><stop stop-opacity="1" stop-color="rgb(80.708313%, 80.708313%, 80.708313%)" offset="0.550781"/><stop stop-opacity="1" stop-color="rgb(80.57251%, 80.57251%, 80.57251%)" offset="0.554688"/><stop stop-opacity="1" stop-color="rgb(80.435181%, 80.435181%, 80.435181%)" offset="0.558594"/><stop stop-opacity="1" stop-color="rgb(80.299377%, 80.299377%, 80.299377%)" offset="0.5625"/><stop stop-opacity="1" stop-color="rgb(80.163574%, 80.163574%, 80.163574%)" offset="0.566406"/><stop stop-opacity="1" stop-color="rgb(80.026245%, 80.026245%, 80.026245%)" offset="0.570312"/><stop stop-opacity="1" stop-color="rgb(79.890442%, 79.890442%, 79.890442%)" offset="0.574219"/><stop stop-opacity="1" stop-color="rgb(79.754639%, 79.754639%, 79.754639%)" offset="0.578125"/><stop stop-opacity="1" stop-color="rgb(79.61731%, 79.61731%, 79.61731%)" offset="0.582031"/><stop stop-opacity="1" stop-color="rgb(79.481506%, 79.481506%, 79.481506%)" offset="0.585938"/><stop stop-opacity="1" stop-color="rgb(79.345703%, 79.345703%, 79.345703%)" offset="0.589844"/><stop stop-opacity="1" stop-color="rgb(79.208374%, 79.208374%, 79.208374%)" offset="0.59375"/><stop stop-opacity="1" stop-color="rgb(79.072571%, 79.072571%, 79.072571%)" offset="0.597656"/><stop stop-opacity="1" stop-color="rgb(78.936768%, 78.936768%, 78.936768%)" offset="0.601562"/><stop stop-opacity="1" stop-color="rgb(78.799438%, 78.799438%, 78.799438%)" offset="0.605469"/><stop stop-opacity="1" stop-color="rgb(78.663635%, 78.663635%, 78.663635%)" offset="0.609375"/><stop stop-opacity="1" stop-color="rgb(78.526306%, 78.526306%, 78.526306%)" offset="0.613281"/><stop stop-opacity="1" stop-color="rgb(78.390503%, 78.390503%, 78.390503%)" offset="0.617188"/><stop stop-opacity="1" stop-color="rgb(78.2547%, 78.2547%, 78.2547%)" offset="0.621094"/><stop stop-opacity="1" stop-color="rgb(78.117371%, 78.117371%, 78.117371%)" offset="0.625"/><stop stop-opacity="1" stop-color="rgb(77.912903%, 77.912903%, 77.912903%)" offset="0.628906"/><stop stop-opacity="1" stop-color="rgb(77.641296%, 77.641296%, 77.641296%)" offset="0.636719"/><stop stop-opacity="1" stop-color="rgb(77.368164%, 77.368164%, 77.368164%)" offset="0.644531"/><stop stop-opacity="1" stop-color="rgb(77.095032%, 77.095032%, 77.095032%)" offset="0.652344"/><stop stop-opacity="1" stop-color="rgb(76.823425%, 76.823425%, 76.823425%)" offset="0.660156"/><stop stop-opacity="1" stop-color="rgb(76.550293%, 76.550293%, 76.550293%)" offset="0.667969"/><stop stop-opacity="1" stop-color="rgb(76.277161%, 76.277161%, 76.277161%)" offset="0.675781"/><stop stop-opacity="1" stop-color="rgb(76.005554%, 76.005554%, 76.005554%)" offset="0.683594"/><stop stop-opacity="1" stop-color="rgb(75.732422%, 75.732422%, 75.732422%)" offset="0.691406"/><stop stop-opacity="1" stop-color="rgb(75.45929%, 75.45929%, 75.45929%)" offset="0.699219"/><stop stop-opacity="1" stop-color="rgb(75.187683%, 75.187683%, 75.187683%)" offset="0.707031"/><stop stop-opacity="1" stop-color="rgb(74.914551%, 74.914551%, 74.914551%)" offset="0.714844"/><stop stop-opacity="1" stop-color="rgb(74.641418%, 74.641418%, 74.641418%)" offset="0.722656"/><stop stop-opacity="1" stop-color="rgb(74.368286%, 74.368286%, 74.368286%)" offset="0.730469"/><stop stop-opacity="1" stop-color="rgb(74.09668%, 74.09668%, 74.09668%)" offset="0.738281"/><stop stop-opacity="1" stop-color="rgb(73.823547%, 73.823547%, 73.823547%)" offset="0.746094"/><stop stop-opacity="1" stop-color="rgb(73.61908%, 73.61908%, 73.61908%)" offset="0.753906"/><stop stop-opacity="1" stop-color="rgb(73.483276%, 73.483276%, 73.483276%)" offset="0.757812"/><stop stop-opacity="1" stop-color="rgb(73.345947%, 73.345947%, 73.345947%)" offset="0.761719"/><stop stop-opacity="1" stop-color="rgb(73.210144%, 73.210144%, 73.210144%)" offset="0.765625"/><stop stop-opacity="1" stop-color="rgb(73.074341%, 73.074341%, 73.074341%)" offset="0.769531"/><stop stop-opacity="1" stop-color="rgb(72.937012%, 72.937012%, 72.937012%)" offset="0.773438"/><stop stop-opacity="1" stop-color="rgb(72.801208%, 72.801208%, 72.801208%)" offset="0.777344"/><stop stop-opacity="1" stop-color="rgb(72.665405%, 72.665405%, 72.665405%)" offset="0.78125"/><stop stop-opacity="1" stop-color="rgb(72.528076%, 72.528076%, 72.528076%)" offset="0.785156"/><stop stop-opacity="1" stop-color="rgb(72.392273%, 72.392273%, 72.392273%)" offset="0.789062"/><stop stop-opacity="1" stop-color="rgb(72.25647%, 72.25647%, 72.25647%)" offset="0.792969"/><stop stop-opacity="1" stop-color="rgb(72.119141%, 72.119141%, 72.119141%)" offset="0.796875"/><stop stop-opacity="1" stop-color="rgb(71.983337%, 71.983337%, 71.983337%)" offset="0.800781"/><stop stop-opacity="1" stop-color="rgb(71.847534%, 71.847534%, 71.847534%)" offset="0.804688"/><stop stop-opacity="1" stop-color="rgb(71.710205%, 71.710205%, 71.710205%)" offset="0.808594"/><stop stop-opacity="1" stop-color="rgb(71.574402%, 71.574402%, 71.574402%)" offset="0.8125"/><stop stop-opacity="1" stop-color="rgb(71.369934%, 71.369934%, 71.369934%)" offset="0.816406"/><stop stop-opacity="1" stop-color="rgb(71.096802%, 71.096802%, 71.096802%)" offset="0.824219"/><stop stop-opacity="1" stop-color="rgb(70.825195%, 70.825195%, 70.825195%)" offset="0.832031"/><stop stop-opacity="1" stop-color="rgb(70.552063%, 70.552063%, 70.552063%)" offset="0.839844"/><stop stop-opacity="1" stop-color="rgb(70.278931%, 70.278931%, 70.278931%)" offset="0.847656"/><stop stop-opacity="1" stop-color="rgb(70.005798%, 70.005798%, 70.005798%)" offset="0.855469"/><stop stop-opacity="1" stop-color="rgb(69.734192%, 69.734192%, 69.734192%)" offset="0.863281"/><stop stop-opacity="1" stop-color="rgb(69.46106%, 69.46106%, 69.46106%)" offset="0.871094"/><stop stop-opacity="1" stop-color="rgb(69.256592%, 69.256592%, 69.256592%)" offset="0.878906"/><stop stop-opacity="1" stop-color="rgb(69.120789%, 69.120789%, 69.120789%)" offset="0.882812"/><stop stop-opacity="1" stop-color="rgb(68.983459%, 68.983459%, 68.983459%)" offset="0.886719"/><stop stop-opacity="1" stop-color="rgb(68.847656%, 68.847656%, 68.847656%)" offset="0.890625"/><stop stop-opacity="1" stop-color="rgb(68.711853%, 68.711853%, 68.711853%)" offset="0.894531"/><stop stop-opacity="1" stop-color="rgb(68.574524%, 68.574524%, 68.574524%)" offset="0.898438"/><stop stop-opacity="1" stop-color="rgb(68.438721%, 68.438721%, 68.438721%)" offset="0.902344"/><stop stop-opacity="1" stop-color="rgb(68.302917%, 68.302917%, 68.302917%)" offset="0.90625"/><stop stop-opacity="1" stop-color="rgb(68.09845%, 68.09845%, 68.09845%)" offset="0.910156"/><stop stop-opacity="1" stop-color="rgb(67.825317%, 67.825317%, 67.825317%)" offset="0.917969"/><stop stop-opacity="1" stop-color="rgb(67.552185%, 67.552185%, 67.552185%)" offset="0.925781"/><stop stop-opacity="1" stop-color="rgb(67.280579%, 67.280579%, 67.280579%)" offset="0.933594"/><stop stop-opacity="1" stop-color="rgb(67.076111%, 67.076111%, 67.076111%)" offset="0.941406"/><stop stop-opacity="1" stop-color="rgb(66.938782%, 66.938782%, 66.938782%)" offset="0.945312"/><stop stop-opacity="1" stop-color="rgb(66.802979%, 66.802979%, 66.802979%)" offset="0.949219"/><stop stop-opacity="1" stop-color="rgb(66.667175%, 66.667175%, 66.667175%)" offset="0.953125"/><stop stop-opacity="1" stop-color="rgb(66.462708%, 66.462708%, 66.462708%)" offset="0.957031"/><stop stop-opacity="1" stop-color="rgb(66.189575%, 66.189575%, 66.189575%)" offset="0.964844"/><stop stop-opacity="1" stop-color="rgb(65.985107%, 65.985107%, 65.985107%)" offset="0.972656"/><stop stop-opacity="1" stop-color="rgb(65.849304%, 65.849304%, 65.849304%)" offset="0.976562"/><stop stop-opacity="1" stop-color="rgb(65.643311%, 65.643311%, 65.643311%)" offset="0.980469"/><stop stop-opacity="1" stop-color="rgb(65.438843%, 65.438843%, 65.438843%)" offset="0.988281"/><stop stop-opacity="1" stop-color="rgb(65.234375%, 65.234375%, 65.234375%)" offset="0.992188"/><stop stop-opacity="1" stop-color="rgb(65.098572%, 65.098572%, 65.098572%)" offset="1"/></radialGradient><clipPath id="b123800613"><path d="M 64.039062 378.664062 L 136.152344 378.664062 L 136.152344 479 L 64.039062 479 Z M 64.039062 378.664062 " clip-rule="nonzero"/></clipPath></defs><rect x="-81" width="972" fill="#ffffff00" y="-80.999999" height="971.999992" fill-opacity="1"/><rect x="-81" width="972" fill="#ffffff00" y="-80.999999" height="971.999992" fill-opacity="1"/><path fill="#ffd659" d="M 68.511719 355.03125 L 163.265625 301.632812 L 203.480469 355.03125 Z M 68.511719 355.03125 " fill-opacity="1" fill-rule="nonzero"/><g clip-path="url(#efa7a7d7d0)"><path stroke-linecap="round" transform="matrix(0.13427, 0, 0, -0.13427, -149.462742, 690.587145)" fill="none" stroke-linejoin="round" d="M 1623.40123 2499.10862 L 2329.096786 2896.802409 L 2628.603556 2499.10862 Z M 1623.40123 2499.10862 " stroke="#040200" stroke-width="40" stroke-opacity="1" stroke-miterlimit="10"/></g><path fill="#ffd659" d="M 162.714844 355.03125 C 163.761719 352.761719 164.339844 350.277344 164.339844 347.660156 C 164.339844 337.203125 155.0625 328.714844 143.609375 328.714844 C 132.167969 328.714844 122.890625 337.203125 122.890625 347.660156 C 122.890625 350.277344 123.46875 352.761719 124.515625 355.03125 L 162.714844 355.03125 " fill-opacity="1" fill-rule="nonzero"/><path stroke-linecap="round" transform="matrix(0.13427, 0, 0, -0.13427, -149.462742, 690.587145)" fill="none" stroke-linejoin="round" d="M 2324.99475 2499.10862 C 2332.791527 2516.011333 2337.097209 2534.514131 2337.097209 2554.006072 C 2337.097209 2631.886561 2268.002641 2695.104454 2182.703578 2695.104454 C 2097.491793 2695.104454 2028.397224 2631.886561 2028.397224 2554.006072 C 2028.397224 2534.514131 2032.702907 2516.011333 2040.499683 2499.10862 Z M 2324.99475 2499.10862 " stroke="#040200" stroke-width="40" stroke-opacity="1" stroke-miterlimit="10"/><path fill="#ffd659" d="M 239.425781 485.101562 C 239.425781 498.097656 229.378906 508.625 217 508.625 L 41.414062 508.625 C 29.035156 508.625 18.992188 498.097656 18.992188 485.101562 L 18.992188 374.636719 C 18.992188 361.652344 29.035156 351.113281 41.414062 351.113281 L 217 351.113281 C 229.378906 351.113281 239.425781 361.652344 239.425781 374.636719 L 239.425781 485.101562 " fill-opacity="1" fill-rule="nonzero"/><g clip-path="url(#8d7dfbffe2)"><path stroke-linecap="round" transform="matrix(0.13427, 0, 0, -0.13427, -149.462742, 690.587145)" fill="none" stroke-linejoin="round" d="M 2896.31228 1530.388225 C 2896.31228 1433.597645 2821.486499 1355.193493 2729.292525 1355.193493 L 1421.586906 1355.193493 C 1329.392932 1355.193493 1254.596244 1433.597645 1254.596244 1530.388225 L 1254.596244 2353.093614 C 1254.596244 2449.796917 1329.392932 2528.288347 1421.586906 2528.288347 L 2729.292525 2528.288347 C 2821.486499 2528.288347 2896.31228 2449.796917 2896.31228 2353.093614 Z M 2896.31228 1530.388225 " stroke="#040200" stroke-width="40" stroke-opacity="1" stroke-miterlimit="10"/></g><path fill="#ffd659" d="M 253 401.691406 L 180.089844 401.691406 C 163.734375 401.691406 150.484375 414.3125 150.484375 429.875 C 150.484375 445.4375 163.734375 458.042969 180.089844 458.042969 L 253 458.042969 L 253 401.691406 " fill-opacity="1" fill-rule="nonzero"/><g clip-path="url(#6a21b5c50e)"><path stroke-linecap="round" transform="matrix(0.13427, 0, 0, -0.13427, -149.462742, 690.587145)" fill="none" stroke-linejoin="round" d="M 2997.408543 2151.599306 L 2454.397967 2151.599306 C 2332.58788 2151.599306 2233.90629 2057.601601 2233.90629 1941.697281 C 2233.90629 1825.792961 2332.58788 1731.911625 2454.397967 1731.911625 L 2997.408543 1731.911625 Z M 2997.408543 2151.599306 " stroke="#040200" stroke-width="40" stroke-opacity="1" stroke-miterlimit="10"/></g><path fill="#ffd659" d="M 185.824219 429.875 C 185.824219 436.171875 180.722656 441.273438 174.410156 441.273438 C 168.113281 441.273438 162.996094 436.171875 162.996094 429.875 C 162.996094 423.5625 168.113281 418.460938 174.410156 418.460938 C 180.722656 418.460938 185.824219 423.5625 185.824219 429.875 " fill-opacity="1" fill-rule="nonzero"/><path stroke-linecap="round" transform="matrix(0.13427, 0, 0, -0.13427, -149.462742, 690.587145)" fill="none" stroke-linejoin="round" d="M 2497.105683 1941.697281 C 2497.105683 1894.800252 2459.110944 1856.805512 2412.097545 1856.805512 C 2365.200516 1856.805512 2327.089406 1894.800252 2327.089406 1941.697281 C 2327.089406 1988.71068 2365.200516 2026.705419 2412.097545 2026.705419 C 2459.110944 2026.705419 2497.105683 1988.71068 2497.105683 1941.697281 Z M 2497.105683 1941.697281 " stroke="#040200" stroke-width="40" stroke-opacity="1" stroke-miterlimit="10"/><g clip-path="url(#88b6f395f6)"><path fill="#7ed957" d="M 68.511719 355.03125 L 163.265625 301.632812 L 203.480469 355.03125 Z M 68.511719 355.03125 " fill-opacity="1" fill-rule="nonzero"/></g><g clip-path="url(#305fe45afb)"><path stroke-linecap="round" transform="matrix(0.13427, 0, 0, -0.13427, -149.462742, 690.587145)" fill="none" stroke-linejoin="round" d="M 1623.40123 2499.10862 L 2329.096786 2896.802409 L 2628.603556 2499.10862 Z M 1623.40123 2499.10862 " stroke="#040200" stroke-width="40" stroke-opacity="1" stroke-miterlimit="10"/></g><g clip-path="url(#cbb82f2dd1)"><path fill="#7ed957" d="M 162.714844 355.03125 C 163.761719 352.761719 164.339844 350.277344 164.339844 347.660156 C 164.339844 337.203125 155.0625 328.714844 143.609375 328.714844 C 132.167969 328.714844 122.890625 337.203125 122.890625 347.660156 C 122.890625 350.277344 123.46875 352.761719 124.515625 355.03125 L 162.714844 355.03125 " fill-opacity="1" fill-rule="nonzero"/></g><g clip-path="url(#63aef0351e)"><path stroke-linecap="round" transform="matrix(0.13427, 0, 0, -0.13427, -149.462742, 690.587145)" fill="none" stroke-linejoin="round" d="M 2324.99475 2499.10862 C 2332.791527 2516.011333 2337.097209 2534.514131 2337.097209 2554.006072 C 2337.097209 2631.886561 2268.002641 2695.104454 2182.703578 2695.104454 C 2097.491793 2695.104454 2028.397224 2631.886561 2028.397224 2554.006072 C 2028.397224 2534.514131 2032.702907 2516.011333 2040.499683 2499.10862 Z M 2324.99475 2499.10862 " stroke="#040200" stroke-width="40" stroke-opacity="1" stroke-miterlimit="10"/></g><g clip-path="url(#f1be40b8d1)"><path stroke-linecap="round" transform="matrix(0.13427, 0, 0, -0.13427, -149.462742, 690.587145)" fill="none" stroke-linejoin="round" d="M 2896.31228 1530.388225 C 2896.31228 1433.597645 2821.486499 1355.193493 2729.292525 1355.193493 L 1421.586906 1355.193493 C 1329.392932 1355.193493 1254.596244 1433.597645 1254.596244 1530.388225 L 1254.596244 2353.093614 C 1254.596244 2449.796917 1329.392932 2528.288347 1421.586906 2528.288347 L 2729.292525 2528.288347 C 2821.486499 2528.288347 2896.31228 2449.796917 2896.31228 2353.093614 Z M 2896.31228 1530.388225 " stroke="#040200" stroke-width="40" stroke-opacity="1" stroke-miterlimit="10"/></g><g clip-path="url(#a971668ea1)"><g clip-path="url(#4fac08a834)"><path fill="url(#b9a5e6dec3)" d="M 162.890625 418.710938 L 162.890625 441.332031 L 185.511719 441.332031 L 185.511719 418.710938 Z M 162.890625 418.710938 " fill-rule="nonzero"/></g></g><g clip-path="url(#b123800613)"><path fill="#000000" d="M 136.203125 378.816406 L 129.378906 393.902344 L 113.753906 393.902344 C 114.527344 394.816406 115.28125 395.984375 116.007812 397.417969 C 116.734375 398.851562 117.214844 400.296875 117.441406 401.753906 L 136.203125 401.753906 L 129.382812 416.839844 L 117.441406 416.839844 C 116.898438 420.117188 115.769531 423.085938 114.0625 425.746094 C 112.359375 428.410156 110.230469 430.71875 107.683594 432.675781 C 105.132812 434.632812 102.246094 436.214844 99.015625 437.421875 C 95.789062 438.625 92.375 439.390625 88.785156 439.707031 L 125.902344 478.886719 L 101.742188 478.886719 L 67.496094 440.796875 L 67.496094 425.710938 L 77.59375 425.710938 C 78.867188 425.710938 80.480469 425.621094 82.4375 425.4375 C 84.390625 425.257812 86.335938 424.859375 88.269531 424.242188 C 90.199219 423.632812 91.964844 422.742188 93.554688 421.582031 C 95.148438 420.421875 96.242188 418.84375 96.832031 416.839844 L 64.078125 416.839844 L 70.902344 401.753906 L 96.761719 401.753906 C 96.21875 399.933594 95.21875 398.5 93.761719 397.453125 C 92.304688 396.40625 90.566406 395.621094 88.539062 395.097656 C 86.515625 394.574219 84.253906 394.246094 81.75 394.109375 C 79.25 393.972656 76.660156 393.902344 73.972656 393.902344 L 64.078125 393.902344 L 70.902344 378.816406 Z M 136.203125 378.816406 " fill-opacity="1" fill-rule="nonzero"/></g><g fill="#000000" fill-opacity="1"><g transform="translate(286.011513, 412.427132)"><g><path d="M 34.203125 -83.265625 C 40.128906 -83.265625 44.554688 -82.929688 47.484375 -82.265625 C 52.515625 -81.140625 56.660156 -78.753906 59.921875 -75.109375 C 63.179688 -71.472656 64.8125 -66.953125 64.8125 -61.546875 C 64.8125 -57.953125 63.96875 -54.671875 62.28125 -51.703125 C 60.59375 -48.742188 58.210938 -46.398438 55.140625 -44.671875 C 59.710938 -43.097656 63.144531 -40.675781 65.4375 -37.40625 C 67.726562 -34.144531 68.875 -30.113281 68.875 -25.3125 C 68.875 -21.269531 68.03125 -17.519531 66.34375 -14.0625 C 64.65625 -10.613281 62.269531 -7.800781 59.1875 -5.625 C 55.882812 -3.300781 52.710938 -1.78125 49.671875 -1.0625 C 46.640625 -0.351562 41.820312 0 35.21875 0 L 7.546875 0 L 7.546875 -83.265625 Z M 44.453125 -58.296875 C 44.453125 -60.460938 43.796875 -62.050781 42.484375 -63.0625 C 41.171875 -64.082031 39.160156 -64.59375 36.453125 -64.59375 L 27.90625 -64.59375 L 27.90625 -51.65625 L 36.34375 -51.65625 C 41.75 -51.65625 44.453125 -53.867188 44.453125 -58.296875 Z M 48.5 -26.671875 C 48.5 -31.472656 45.3125 -33.875 38.9375 -33.875 L 27.90625 -33.875 L 27.90625 -18.6875 L 38.828125 -18.6875 C 41.898438 -18.6875 44.28125 -19.359375 45.96875 -20.703125 C 47.65625 -22.054688 48.5 -24.046875 48.5 -26.671875 Z M 48.5 -26.671875 "/></g></g></g><g fill="#000000" fill-opacity="1"><g transform="translate(356.563871, 412.427132)"><g><path d="M 28.8125 -83.265625 L 28.8125 0 L 7.546875 0 L 7.546875 -83.265625 Z M 28.8125 -83.265625 "/></g></g></g><g fill="#000000" fill-opacity="1"><g transform="translate(390.658452, 412.427132)"><g><path d="M 29.375 -83.265625 L 29.375 -18.6875 L 54.015625 -18.6875 L 54.015625 0 L 8.109375 0 L 8.109375 -83.265625 Z M 29.375 -83.265625 "/></g></g></g><g fill="#000000" fill-opacity="1"><g transform="translate(443.206974, 412.427132)"><g><path d="M 29.375 -83.265625 L 29.375 -18.6875 L 54.015625 -18.6875 L 54.015625 0 L 8.109375 0 L 8.109375 -83.265625 Z M 29.375 -83.265625 "/></g></g></g><g fill="#ffd659" fill-opacity="1"><g transform="translate(495.756834, 412.427132)"><g><path d="M 49.96875 -83.265625 L 49.96875 -75.734375 L 16.203125 -75.734375 L 16.203125 -45.578125 L 48.71875 -45.578125 L 48.71875 -38.03125 L 16.203125 -38.03125 L 16.203125 0 L 7.875 0 L 7.875 -83.265625 Z M 49.96875 -83.265625 "/></g></g></g><g fill="#ffd659" fill-opacity="1"><g transform="translate(548.080301, 412.427132)"><g><path d="M 15.1875 -83.265625 L 15.1875 0 L 7.3125 0 L 7.3125 -83.265625 Z M 15.1875 -83.265625 "/></g></g></g><g fill="#ffd659" fill-opacity="1"><g transform="translate(568.334439, 412.427132)"><g><path d="M 15.1875 -83.265625 L 15.1875 -69.09375 L 7.3125 -69.09375 L 7.3125 -83.265625 Z M 15.1875 -61.546875 L 15.1875 0 L 7.3125 0 L 7.3125 -61.546875 Z M 15.1875 -61.546875 "/></g></g></g><g fill="#ffd659" fill-opacity="1"><g transform="translate(588.588573, 412.427132)"><g><path d="M 37.703125 1.46875 C 31.617188 1.46875 26.046875 0.0625 20.984375 -2.75 C 15.921875 -5.570312 11.925781 -9.472656 9 -14.453125 C 6.070312 -19.441406 4.609375 -25.085938 4.609375 -31.390625 C 4.609375 -36.941406 6.109375 -42.15625 9.109375 -47.03125 C 12.109375 -51.914062 16.140625 -55.816406 21.203125 -58.734375 C 26.273438 -61.660156 31.773438 -63.125 37.703125 -63.125 C 44.523438 -63.125 50.710938 -61.320312 56.265625 -57.71875 C 61.816406 -54.125 65.832031 -49.210938 68.3125 -42.984375 L 59.640625 -42.984375 C 57.390625 -47.179688 54.332031 -50.40625 50.46875 -52.65625 C 46.601562 -54.914062 42.421875 -56.046875 37.921875 -56.046875 C 33.273438 -56.046875 29 -54.914062 25.09375 -52.65625 C 21.195312 -50.40625 18.117188 -47.367188 15.859375 -43.546875 C 13.609375 -39.722656 12.484375 -35.523438 12.484375 -30.953125 C 12.484375 -26.296875 13.609375 -22.035156 15.859375 -18.171875 C 18.117188 -14.304688 21.175781 -11.25 25.03125 -9 C 28.894531 -6.75 33.191406 -5.625 37.921875 -5.625 C 42.648438 -5.625 46.90625 -6.691406 50.6875 -8.828125 C 54.476562 -10.972656 57.460938 -14.070312 59.640625 -18.125 L 68.3125 -18.125 C 61.707031 -5.0625 51.503906 1.46875 37.703125 1.46875 Z M 37.703125 1.46875 "/></g></g></g><g fill="#ffd659" fill-opacity="1"><g transform="translate(659.140939, 412.427132)"><g><path d="M 15.75 -11.703125 L 15.75 0 L 7.875 0 L 7.875 -83.265625 L 15.75 -83.265625 L 15.75 -23.96875 L 15.984375 -23.96875 L 44.671875 -61.546875 L 54.796875 -61.546875 L 30.5 -30.5 L 56.046875 0 L 45.90625 0 L 25.65625 -24.3125 Z M 15.75 -11.703125 "/></g></g></g><path fill="#5383ff" d="M 324.714844 451.558594 L 676.9375 451.558594 C 680.039062 451.558594 683.019531 452.792969 685.210938 454.988281 C 687.40625 457.179688 688.640625 460.160156 688.640625 463.261719 L 688.640625 486.671875 C 688.640625 489.777344 687.40625 492.753906 685.210938 494.949219 C 683.019531 497.144531 680.039062 498.375 676.9375 498.375 L 324.714844 498.375 C 318.25 498.375 313.011719 493.136719 313.011719 486.671875 L 313.011719 463.261719 C 313.011719 456.796875 318.25 451.558594 324.714844 451.558594 Z M 324.714844 451.558594 " fill-opacity="1" fill-rule="nonzero"/><g fill="#ffffff" fill-opacity="1"><g transform="translate(329.871981, 483.250327)"><g><path d="M 6.25 -14.125 L 0.859375 -14.125 L 0.859375 -17.71875 L 15.546875 -17.71875 L 15.546875 -14.125 L 10.15625 -14.125 L 10.15625 0 L 6.25 0 Z M 6.25 -14.125 "/></g></g></g><g fill="#ffffff" fill-opacity="1"><g transform="translate(346.776943, 483.250327)"><g><path d="M 2.125 -17.71875 L 6.03125 -17.71875 L 6.03125 -10.703125 L 13.21875 -10.703125 L 13.21875 -17.71875 L 17.109375 -17.71875 L 17.109375 0 L 13.21875 0 L 13.21875 -7.109375 L 6.03125 -7.109375 L 6.03125 0 L 2.125 0 Z M 2.125 -17.71875 "/></g></g></g><g fill="#ffffff" fill-opacity="1"><g transform="translate(366.516239, 483.250327)"><g><path d="M 2.125 -17.71875 L 15.484375 -17.71875 L 15.484375 -14.25 L 6 -14.25 L 6 -10.65625 L 14.359375 -10.65625 L 14.359375 -7.1875 L 6 -7.1875 L 6 -3.46875 L 15.625 -3.46875 L 15.625 0 L 2.125 0 Z M 2.125 -17.71875 "/></g></g></g><g fill="#ffffff" fill-opacity="1"><g transform="translate(383.97795, 483.250327)"><g/></g></g><g fill="#ffffff" fill-opacity="1"><g transform="translate(392.076244, 483.250327)"><g><path d="M 2.125 -17.71875 L 10.359375 -17.71875 C 12.398438 -17.71875 13.941406 -17.195312 14.984375 -16.15625 C 15.796875 -15.34375 16.203125 -14.335938 16.203125 -13.140625 L 16.203125 -13.09375 C 16.203125 -12.582031 16.132812 -12.128906 16 -11.734375 C 15.875 -11.347656 15.707031 -11 15.5 -10.6875 C 15.289062 -10.375 15.046875 -10.097656 14.765625 -9.859375 C 14.492188 -9.628906 14.195312 -9.429688 13.875 -9.265625 C 14.90625 -8.878906 15.710938 -8.351562 16.296875 -7.6875 C 16.890625 -7.019531 17.1875 -6.09375 17.1875 -4.90625 L 17.1875 -4.859375 C 17.1875 -4.046875 17.03125 -3.335938 16.71875 -2.734375 C 16.40625 -2.128906 15.957031 -1.625 15.375 -1.21875 C 14.789062 -0.8125 14.085938 -0.503906 13.265625 -0.296875 C 12.453125 -0.0976562 11.550781 0 10.5625 0 L 2.125 0 Z M 12.328125 -12.484375 C 12.328125 -13.066406 12.109375 -13.515625 11.671875 -13.828125 C 11.234375 -14.140625 10.597656 -14.296875 9.765625 -14.296875 L 5.921875 -14.296875 L 5.921875 -10.5625 L 9.515625 -10.5625 C 10.378906 -10.5625 11.0625 -10.707031 11.5625 -11 C 12.070312 -11.289062 12.328125 -11.765625 12.328125 -12.421875 Z M 13.3125 -5.390625 C 13.3125 -5.984375 13.082031 -6.453125 12.625 -6.796875 C 12.175781 -7.140625 11.441406 -7.3125 10.421875 -7.3125 L 5.921875 -7.3125 L 5.921875 -3.421875 L 10.5625 -3.421875 C 11.414062 -3.421875 12.085938 -3.578125 12.578125 -3.890625 C 13.066406 -4.203125 13.3125 -4.6875 13.3125 -5.34375 Z M 13.3125 -5.390625 "/></g></g></g><g fill="#ffffff" fill-opacity="1"><g transform="translate(410.853889, 483.250327)"><g><path d="M 2.296875 -17.71875 L 6.203125 -17.71875 L 6.203125 0 L 2.296875 0 Z M 2.296875 -17.71875 "/></g></g></g><g fill="#ffffff" fill-opacity="1"><g transform="translate(419.863216, 483.250327)"><g><path d="M 2.125 -17.71875 L 6.03125 -17.71875 L 6.03125 -3.546875 L 14.859375 -3.546875 L 14.859375 0 L 2.125 0 Z M 2.125 -17.71875 "/></g></g></g><g fill="#ffffff" fill-opacity="1"><g transform="translate(436.034286, 483.250327)"><g><path d="M 2.125 -17.71875 L 6.03125 -17.71875 L 6.03125 -3.546875 L 14.859375 -3.546875 L 14.859375 0 L 2.125 0 Z M 2.125 -17.71875 "/></g></g></g><g fill="#ffffff" fill-opacity="1"><g transform="translate(452.205357, 483.250327)"><g><path d="M 2.296875 -17.71875 L 6.203125 -17.71875 L 6.203125 0 L 2.296875 0 Z M 2.296875 -17.71875 "/></g></g></g><g fill="#ffffff" fill-opacity="1"><g transform="translate(461.214684, 483.250327)"><g><path d="M 2.125 -17.71875 L 5.71875 -17.71875 L 14.015625 -6.8125 L 14.015625 -17.71875 L 17.875 -17.71875 L 17.875 0 L 14.546875 0 L 5.96875 -11.265625 L 5.96875 0 L 2.125 0 Z M 2.125 -17.71875 "/></g></g></g><g fill="#ffffff" fill-opacity="1"><g transform="translate(481.71318, 483.250327)"><g><path d="M 10.65625 0.296875 C 9.269531 0.296875 8.003906 0.0703125 6.859375 -0.375 C 5.722656 -0.832031 4.742188 -1.46875 3.921875 -2.28125 C 3.109375 -3.09375 2.472656 -4.050781 2.015625 -5.15625 C 1.566406 -6.269531 1.34375 -7.488281 1.34375 -8.8125 L 1.34375 -8.859375 C 1.34375 -10.117188 1.570312 -11.300781 2.03125 -12.40625 C 2.5 -13.519531 3.144531 -14.492188 3.96875 -15.328125 C 4.800781 -16.160156 5.78125 -16.816406 6.90625 -17.296875 C 8.039062 -17.773438 9.28125 -18.015625 10.625 -18.015625 C 11.425781 -18.015625 12.148438 -17.957031 12.796875 -17.84375 C 13.441406 -17.738281 14.039062 -17.582031 14.59375 -17.375 C 15.15625 -17.175781 15.679688 -16.925781 16.171875 -16.625 C 16.660156 -16.320312 17.132812 -15.976562 17.59375 -15.59375 L 15.140625 -12.625 C 14.796875 -12.914062 14.457031 -13.171875 14.125 -13.390625 C 13.789062 -13.609375 13.441406 -13.789062 13.078125 -13.9375 C 12.710938 -14.09375 12.316406 -14.210938 11.890625 -14.296875 C 11.472656 -14.378906 11.007812 -14.421875 10.5 -14.421875 C 9.789062 -14.421875 9.128906 -14.273438 8.515625 -13.984375 C 7.898438 -13.691406 7.359375 -13.296875 6.890625 -12.796875 C 6.429688 -12.296875 6.070312 -11.710938 5.8125 -11.046875 C 5.550781 -10.378906 5.421875 -9.664062 5.421875 -8.90625 L 5.421875 -8.859375 C 5.421875 -8.046875 5.550781 -7.296875 5.8125 -6.609375 C 6.070312 -5.929688 6.441406 -5.335938 6.921875 -4.828125 C 7.398438 -4.328125 7.960938 -3.9375 8.609375 -3.65625 C 9.265625 -3.375 9.988281 -3.234375 10.78125 -3.234375 C 12.226562 -3.234375 13.453125 -3.585938 14.453125 -4.296875 L 14.453125 -6.828125 L 10.53125 -6.828125 L 10.53125 -10.203125 L 18.21875 -10.203125 L 18.21875 -2.5 C 17.3125 -1.726562 16.226562 -1.066406 14.96875 -0.515625 C 13.71875 0.0234375 12.28125 0.296875 10.65625 0.296875 Z M 10.65625 0.296875 "/></g></g></g><g fill="#ffffff" fill-opacity="1"><g transform="translate(502.059826, 483.250327)"><g/></g></g><g fill="#ffffff" fill-opacity="1"><g transform="translate(510.158119, 483.250327)"><g><path d="M 2.125 -17.71875 L 6.328125 -17.71875 L 10.984375 -10.21875 L 15.640625 -17.71875 L 19.84375 -17.71875 L 19.84375 0 L 15.96875 0 L 15.96875 -11.5625 L 10.984375 -4 L 10.890625 -4 L 5.953125 -11.484375 L 5.953125 0 L 2.125 0 Z M 2.125 -17.71875 "/></g></g></g><g fill="#ffffff" fill-opacity="1"><g transform="translate(532.630516, 483.250327)"><g><path d="M 8.203125 -17.84375 L 11.796875 -17.84375 L 19.390625 0 L 15.3125 0 L 13.6875 -3.96875 L 6.203125 -3.96875 L 4.578125 0 L 0.609375 0 Z M 12.296875 -7.421875 L 9.953125 -13.15625 L 7.59375 -7.421875 Z M 12.296875 -7.421875 "/></g></g></g><g fill="#ffffff" fill-opacity="1"><g transform="translate(553.129011, 483.250327)"><g><path d="M 2.125 -17.71875 L 9.03125 -17.71875 C 10.414062 -17.71875 11.6875 -17.492188 12.84375 -17.046875 C 14 -16.597656 14.992188 -15.976562 15.828125 -15.1875 C 16.660156 -14.394531 17.304688 -13.460938 17.765625 -12.390625 C 18.222656 -11.316406 18.453125 -10.15625 18.453125 -8.90625 L 18.453125 -8.859375 C 18.453125 -7.609375 18.222656 -6.441406 17.765625 -5.359375 C 17.304688 -4.285156 16.660156 -3.347656 15.828125 -2.546875 C 14.992188 -1.753906 14 -1.128906 12.84375 -0.671875 C 11.6875 -0.222656 10.414062 0 9.03125 0 L 2.125 0 Z M 6.03125 -14.203125 L 6.03125 -3.515625 L 9.03125 -3.515625 C 9.820312 -3.515625 10.546875 -3.640625 11.203125 -3.890625 C 11.867188 -4.148438 12.429688 -4.515625 12.890625 -4.984375 C 13.359375 -5.453125 13.722656 -6.007812 13.984375 -6.65625 C 14.242188 -7.300781 14.375 -8.019531 14.375 -8.8125 L 14.375 -8.859375 C 14.375 -9.640625 14.242188 -10.359375 13.984375 -11.015625 C 13.722656 -11.671875 13.359375 -12.234375 12.890625 -12.703125 C 12.429688 -13.179688 11.867188 -13.550781 11.203125 -13.8125 C 10.546875 -14.070312 9.820312 -14.203125 9.03125 -14.203125 Z M 6.03125 -14.203125 "/></g></g></g><g fill="#ffffff" fill-opacity="1"><g transform="translate(573.425041, 483.250327)"><g><path d="M 2.125 -17.71875 L 15.484375 -17.71875 L 15.484375 -14.25 L 6 -14.25 L 6 -10.65625 L 14.359375 -10.65625 L 14.359375 -7.1875 L 6 -7.1875 L 6 -3.46875 L 15.625 -3.46875 L 15.625 0 L 2.125 0 Z M 2.125 -17.71875 "/></g></g></g><g fill="#ffffff" fill-opacity="1"><g transform="translate(590.886753, 483.250327)"><g/></g></g><g fill="#ffffff" fill-opacity="1"><g transform="translate(598.985031, 483.250327)"><g><path d="M 2.125 -17.71875 L 15.484375 -17.71875 L 15.484375 -14.25 L 6 -14.25 L 6 -10.65625 L 14.359375 -10.65625 L 14.359375 -7.1875 L 6 -7.1875 L 6 -3.46875 L 15.625 -3.46875 L 15.625 0 L 2.125 0 Z M 2.125 -17.71875 "/></g></g></g><g fill="#ffffff" fill-opacity="1"><g transform="translate(616.446757, 483.250327)"><g><path d="M 8.203125 -17.84375 L 11.796875 -17.84375 L 19.390625 0 L 15.3125 0 L 13.6875 -3.96875 L 6.203125 -3.96875 L 4.578125 0 L 0.609375 0 Z M 12.296875 -7.421875 L 9.953125 -13.15625 L 7.59375 -7.421875 Z M 12.296875 -7.421875 "/></g></g></g><g fill="#ffffff" fill-opacity="1"><g transform="translate(636.945253, 483.250327)"><g><path d="M 8.421875 0.25 C 7.078125 0.25 5.753906 0.0195312 4.453125 -0.4375 C 3.148438 -0.90625 1.96875 -1.617188 0.90625 -2.578125 L 3.21875 -5.34375 C 4.019531 -4.6875 4.847656 -4.160156 5.703125 -3.765625 C 6.554688 -3.378906 7.488281 -3.1875 8.5 -3.1875 C 9.3125 -3.1875 9.941406 -3.332031 10.390625 -3.625 C 10.835938 -3.925781 11.0625 -4.335938 11.0625 -4.859375 L 11.0625 -4.90625 C 11.0625 -5.164062 11.015625 -5.390625 10.921875 -5.578125 C 10.828125 -5.773438 10.648438 -5.957031 10.390625 -6.125 C 10.128906 -6.289062 9.765625 -6.457031 9.296875 -6.625 C 8.835938 -6.800781 8.238281 -6.976562 7.5 -7.15625 C 6.601562 -7.382812 5.789062 -7.628906 5.0625 -7.890625 C 4.332031 -8.160156 3.710938 -8.492188 3.203125 -8.890625 C 2.703125 -9.285156 2.3125 -9.78125 2.03125 -10.375 C 1.757812 -10.96875 1.625 -11.703125 1.625 -12.578125 L 1.625 -12.625 C 1.625 -13.4375 1.773438 -14.164062 2.078125 -14.8125 C 2.378906 -15.46875 2.800781 -16.03125 3.34375 -16.5 C 3.894531 -16.976562 4.550781 -17.34375 5.3125 -17.59375 C 6.070312 -17.84375 6.910156 -17.96875 7.828125 -17.96875 C 9.117188 -17.96875 10.304688 -17.773438 11.390625 -17.390625 C 12.484375 -17.003906 13.488281 -16.445312 14.40625 -15.71875 L 12.375 -12.78125 C 11.582031 -13.320312 10.804688 -13.75 10.046875 -14.0625 C 9.285156 -14.375 8.523438 -14.53125 7.765625 -14.53125 C 7.003906 -14.53125 6.4375 -14.378906 6.0625 -14.078125 C 5.6875 -13.785156 5.5 -13.421875 5.5 -12.984375 L 5.5 -12.9375 C 5.5 -12.644531 5.550781 -12.394531 5.65625 -12.1875 C 5.769531 -11.976562 5.96875 -11.785156 6.25 -11.609375 C 6.539062 -11.441406 6.929688 -11.28125 7.421875 -11.125 C 7.921875 -10.976562 8.550781 -10.804688 9.3125 -10.609375 C 10.207031 -10.367188 11.003906 -10.097656 11.703125 -9.796875 C 12.398438 -9.503906 12.988281 -9.148438 13.46875 -8.734375 C 13.957031 -8.328125 14.320312 -7.84375 14.5625 -7.28125 C 14.8125 -6.726562 14.9375 -6.066406 14.9375 -5.296875 L 14.9375 -5.234375 C 14.9375 -4.359375 14.773438 -3.578125 14.453125 -2.890625 C 14.128906 -2.210938 13.679688 -1.640625 13.109375 -1.171875 C 12.535156 -0.710938 11.851562 -0.359375 11.0625 -0.109375 C 10.269531 0.128906 9.390625 0.25 8.421875 0.25 Z M 8.421875 0.25 "/></g></g></g><g fill="#ffffff" fill-opacity="1"><g transform="translate(653.647765, 483.250327)"><g><path d="M 7.109375 -6.984375 L 0.296875 -17.71875 L 4.859375 -17.71875 L 9.09375 -10.609375 L 13.390625 -17.71875 L 17.8125 -17.71875 L 11.015625 -7.0625 L 11.015625 0 L 7.109375 0 Z M 7.109375 -6.984375 "/></g></g></g></svg>