<svg width="211" height="61" viewBox="0 0 211 61" fill="none" xmlns="http://www.w3.org/2000/svg">
<path d="M103.834 16.856L103.978 16.892C104.578 17.252 105.094 17.66 105.526 18.116C105.982 18.548 106.39 19.016 106.75 19.52C107.134 20 107.434 20.528 107.65 21.104C108.562 23.312 107.77 25.784 105.274 28.52C104.218 29.672 103.03 30.656 101.71 31.472C102.046 31.712 102.358 31.892 102.646 32.012C102.958 32.108 103.39 32.312 103.942 32.624C104.494 32.912 104.854 33.476 105.022 34.316C105.19 35.132 105.142 36.056 104.878 37.088C104.638 38.12 104.182 39.188 103.51 40.292C102.862 41.372 102.01 42.344 100.954 43.208C98.5542 45.2 95.7702 46.04 92.6022 45.728C92.1462 45.728 91.8582 45.692 91.7382 45.62C91.6182 45.548 91.5222 45.488 91.4502 45.44C91.3782 45.392 91.2222 45.356 90.9822 45.332C90.3822 45.812 89.6982 46.112 88.9302 46.232C88.1622 46.352 87.4302 46.292 86.7342 46.052C86.0622 45.812 85.4862 45.404 85.0062 44.828C84.5502 44.252 84.3222 43.496 84.3222 42.56C84.3942 41.936 84.5142 41.444 84.6822 41.084C84.6102 40.868 84.5742 40.604 84.5742 40.292C85.3902 35.948 86.1582 32.624 86.8782 30.32C88.3422 25.736 89.9262 22.28 91.6302 19.952C93.0222 17.984 94.9542 16.712 97.4262 16.136C99.8022 15.584 101.938 15.824 103.834 16.856ZM92.6382 41.984C92.9262 41.912 93.1662 41.9 93.3582 41.948C93.5742 41.972 93.8262 41.96 94.1142 41.912C94.8102 41.84 95.7462 41.408 96.9222 40.616C97.6662 39.872 98.0622 39.14 98.1102 38.42C98.1582 37.7 98.0502 37.244 97.7862 37.052C97.5222 36.836 97.1622 36.728 96.7062 36.728C96.2742 36.728 95.7822 36.8 95.2302 36.944C94.7022 37.064 94.1862 37.136 93.6822 37.16V37.232C93.5622 37.712 93.4422 38.132 93.3222 38.492C93.2022 38.852 93.0942 39.2 92.9982 39.536C92.7822 40.328 92.6142 41.144 92.4942 41.984H92.6382ZM99.3342 23.264C98.6142 23.168 97.8342 23.732 96.9942 24.956C96.4662 25.724 96.0582 26.888 95.7702 28.448C96.2742 28.232 96.7662 28.052 97.2462 27.908C97.7502 27.74 98.2182 27.56 98.6502 27.368C99.7062 26.912 100.462 26.36 100.918 25.712C101.446 25.088 101.614 24.56 101.422 24.128C101.134 23.744 100.666 23.396 100.018 23.084C99.8262 23.252 99.5982 23.312 99.3342 23.264ZM98.7942 23.12H98.9022H98.7942ZM110.637 28.412C110.949 27.62 111.693 27.08 112.869 26.792C113.973 26.504 115.005 26.54 115.965 26.9C116.949 27.284 117.393 27.908 117.297 28.772C117.033 29.612 116.697 30.644 116.289 31.868C115.905 33.068 115.533 34.304 115.173 35.576C114.213 38.84 113.661 41.144 113.517 42.488C113.157 44.648 112.557 45.812 111.717 45.98C111.477 46.028 111.249 46.064 111.033 46.088C110.505 46.112 110.169 46.256 110.025 46.52C109.881 46.784 109.641 46.976 109.305 47.096C108.969 47.24 108.597 47.3 108.189 47.276C107.805 47.276 107.409 47.18 107.001 46.988C106.593 46.82 106.245 46.568 105.957 46.232C105.285 45.416 105.153 44.324 105.561 42.956C105.945 40.34 106.917 37.016 108.477 32.984C109.221 30.992 109.941 29.468 110.637 28.412ZM117.441 23.012C116.265 23.252 115.305 23.18 114.561 22.796C113.841 22.412 113.421 21.956 113.301 21.428C113.181 20.876 113.349 20.312 113.805 19.736C114.333 19.016 115.125 18.548 116.181 18.332C116.661 18.284 117.009 18.26 117.225 18.26C117.441 18.26 117.705 18.308 118.017 18.404C118.809 18.476 119.325 18.824 119.565 19.448C119.901 19.976 119.925 20.576 119.637 21.248C119.373 21.92 118.641 22.508 117.441 23.012ZM124.507 42.596C124.363 43.1 124.195 43.544 124.003 43.928C123.811 44.312 123.523 44.672 123.139 45.008C122.755 45.344 122.299 45.656 121.771 45.944C121.243 46.256 120.739 46.472 120.259 46.592C119.155 46.832 118.579 46.508 118.531 45.62C118.459 45.38 118.303 45.236 118.063 45.188C117.847 45.164 117.643 45.104 117.451 45.008C116.947 44.792 116.803 44.204 117.019 43.244C117.403 41.924 117.823 40.328 118.279 38.456C118.735 36.56 119.323 34.484 120.043 32.228C121.747 26.756 123.859 21.824 126.379 17.432C126.547 17.216 126.739 16.94 126.955 16.604C127.171 16.244 127.447 15.92 127.783 15.632C128.623 14.864 129.655 14.684 130.879 15.092C130.855 15.404 130.927 15.692 131.095 15.956C131.263 16.196 131.455 16.448 131.671 16.712C132.223 17.336 132.475 17.9 132.427 18.404C129.883 24.428 127.591 31.16 125.551 38.6C125.311 39.464 125.119 40.22 124.975 40.868C124.831 41.516 124.675 42.092 124.507 42.596ZM135.089 42.596C134.945 43.1 134.777 43.544 134.585 43.928C134.393 44.312 134.105 44.672 133.721 45.008C133.337 45.344 132.881 45.656 132.353 45.944C131.825 46.256 131.321 46.472 130.841 46.592C129.737 46.832 129.161 46.508 129.113 45.62C129.041 45.38 128.885 45.236 128.645 45.188C128.429 45.164 128.225 45.104 128.033 45.008C127.529 44.792 127.385 44.204 127.601 43.244C127.985 41.924 128.405 40.328 128.861 38.456C129.317 36.56 129.905 34.484 130.625 32.228C132.329 26.756 134.441 21.824 136.961 17.432C137.129 17.216 137.321 16.94 137.537 16.604C137.753 16.244 138.029 15.92 138.365 15.632C139.205 14.864 140.237 14.684 141.461 15.092C141.437 15.404 141.509 15.692 141.677 15.956C141.845 16.196 142.037 16.448 142.253 16.712C142.805 17.336 143.057 17.9 143.009 18.404C140.465 24.428 138.173 31.16 136.133 38.6C135.893 39.464 135.701 40.22 135.557 40.868C135.413 41.516 135.257 42.092 135.089 42.596ZM143.943 43.676C143.631 44.804 142.839 45.56 141.567 45.944C140.415 46.28 139.383 46.16 138.471 45.584C137.487 44.984 137.175 44.096 137.535 42.92C137.847 41.576 138.447 39.428 139.335 36.476C140.223 33.524 140.847 31.448 141.207 30.248C142.047 27.272 142.575 25.304 142.791 24.344C143.535 21.944 144.063 20.456 144.375 19.88C144.711 19.304 144.999 18.908 145.239 18.692C145.479 18.452 145.863 18.176 146.391 17.864C146.943 17.552 147.531 17.312 148.155 17.144C148.779 16.976 149.403 16.868 150.027 16.82C150.651 16.748 151.287 16.7 151.935 16.676C152.583 16.628 153.303 16.508 154.095 16.316C154.407 16.316 154.683 16.292 154.923 16.244C155.187 16.196 155.439 16.16 155.679 16.136C156.231 16.088 156.771 16.148 157.299 16.316C157.851 16.484 158.259 16.784 158.523 17.216C158.811 17.648 158.955 18.14 158.955 18.692C158.955 19.244 158.835 19.832 158.595 20.456C158.379 21.08 158.067 21.68 157.659 22.256C156.771 23.504 155.655 24.392 154.311 24.92C153.375 25.208 152.703 25.352 152.295 25.352C151.887 25.352 151.599 25.304 151.431 25.208C151.287 25.112 151.203 25.04 151.179 24.992C151.155 24.944 151.071 25.028 150.927 25.244C150.711 25.556 150.555 25.904 150.459 26.288C150.363 26.672 150.255 26.96 150.135 27.152C150.015 27.32 149.847 27.668 149.631 28.196C149.439 28.724 149.187 29.168 148.875 29.528C148.563 29.864 148.383 30.068 148.335 30.14L151.503 29.816C152.007 29.768 152.439 29.876 152.799 30.14C153.183 30.38 153.447 30.68 153.591 31.04C153.759 31.4 153.807 31.76 153.735 32.12C153.663 32.456 153.447 32.72 153.087 32.912C152.727 33.08 152.487 33.26 152.367 33.452C152.271 33.62 152.187 33.788 152.115 33.956C152.043 34.124 151.947 34.292 151.827 34.46C151.731 34.628 151.503 34.784 151.143 34.928C150.375 35.288 148.899 35.576 146.715 35.792C146.595 36.152 146.427 36.584 146.211 37.088C146.019 37.568 145.815 38.072 145.599 38.6C144.975 40.208 144.615 41.18 144.519 41.516C144.447 41.852 144.387 42.128 144.339 42.344C144.195 42.992 144.063 43.436 143.943 43.676ZM160.929 42.596C160.785 43.1 160.617 43.544 160.425 43.928C160.233 44.312 159.945 44.672 159.561 45.008C159.177 45.344 158.721 45.656 158.193 45.944C157.665 46.256 157.161 46.472 156.681 46.592C155.577 46.832 155.001 46.508 154.953 45.62C154.881 45.38 154.725 45.236 154.485 45.188C154.269 45.164 154.065 45.104 153.873 45.008C153.369 44.792 153.225 44.204 153.441 43.244C153.825 41.924 154.245 40.328 154.701 38.456C155.157 36.56 155.745 34.484 156.465 32.228C158.169 26.756 160.281 21.824 162.801 17.432C162.969 17.216 163.161 16.94 163.377 16.604C163.593 16.244 163.869 15.92 164.205 15.632C165.045 14.864 166.077 14.684 167.301 15.092C167.277 15.404 167.349 15.692 167.517 15.956C167.685 16.196 167.877 16.448 168.093 16.712C168.645 17.336 168.897 17.9 168.849 18.404C166.305 24.428 164.013 31.16 161.973 38.6C161.733 39.464 161.541 40.22 161.397 40.868C161.253 41.516 161.097 42.092 160.929 42.596ZM169.207 28.412C169.519 27.62 170.263 27.08 171.439 26.792C172.543 26.504 173.575 26.54 174.535 26.9C175.519 27.284 175.963 27.908 175.867 28.772C175.603 29.612 175.267 30.644 174.859 31.868C174.475 33.068 174.103 34.304 173.743 35.576C172.783 38.84 172.231 41.144 172.087 42.488C171.727 44.648 171.127 45.812 170.287 45.98C170.047 46.028 169.819 46.064 169.603 46.088C169.075 46.112 168.739 46.256 168.595 46.52C168.451 46.784 168.211 46.976 167.875 47.096C167.539 47.24 167.167 47.3 166.759 47.276C166.375 47.276 165.979 47.18 165.571 46.988C165.163 46.82 164.815 46.568 164.527 46.232C163.855 45.416 163.723 44.324 164.131 42.956C164.515 40.34 165.487 37.016 167.047 32.984C167.791 30.992 168.511 29.468 169.207 28.412ZM176.011 23.012C174.835 23.252 173.875 23.18 173.131 22.796C172.411 22.412 171.991 21.956 171.871 21.428C171.751 20.876 171.919 20.312 172.375 19.736C172.903 19.016 173.695 18.548 174.751 18.332C175.231 18.284 175.579 18.26 175.795 18.26C176.011 18.26 176.275 18.308 176.587 18.404C177.379 18.476 177.895 18.824 178.135 19.448C178.471 19.976 178.495 20.576 178.207 21.248C177.943 21.92 177.211 22.508 176.011 23.012ZM190.781 26.324C191.717 26.444 192.341 26.78 192.653 27.332C192.989 27.86 193.121 28.436 193.049 29.06C192.977 29.66 192.749 30.212 192.365 30.716C192.005 31.196 191.597 31.448 191.141 31.472C190.973 31.976 190.709 32.324 190.349 32.516C189.989 32.708 189.593 32.84 189.161 32.912C188.729 32.984 188.273 33.068 187.793 33.164C187.337 33.236 186.905 33.44 186.497 33.776C186.089 34.112 185.741 34.448 185.453 34.784C185.189 35.096 184.973 35.408 184.805 35.72C184.517 36.248 184.265 36.896 184.049 37.664C184.001 38.192 184.253 38.684 184.805 39.14C185.453 39.644 186.161 39.872 186.929 39.824C187.697 39.752 188.309 39.788 188.765 39.932C189.245 40.052 189.605 40.232 189.845 40.472C190.373 41.024 190.325 41.66 189.701 42.38C188.501 44.3 186.485 45.44 183.653 45.8C182.813 45.92 181.973 45.944 181.133 45.872C180.293 45.824 179.477 45.512 178.685 44.936C177.893 44.36 177.269 43.58 176.813 42.596C175.805 40.34 175.889 37.712 177.065 34.712C178.193 31.904 179.885 29.744 182.141 28.232C184.613 26.552 187.493 25.916 190.781 26.324ZM199.145 15.74C199.673 15.092 200.309 14.732 201.053 14.66C201.797 14.588 202.517 14.708 203.213 15.02C203.909 15.308 204.497 15.764 204.977 16.388C205.481 16.988 205.757 17.66 205.805 18.404L205.481 19.448C205.745 19.76 205.973 20.012 206.165 20.204C206.381 20.396 206.501 20.696 206.525 21.104C206.669 21.44 206.069 22.772 204.725 25.1C204.173 26.06 203.585 27.068 202.961 28.124C202.361 29.156 201.869 30.08 201.485 30.896C201.773 30.824 202.061 30.764 202.349 30.716C202.637 30.668 202.925 30.608 203.213 30.536C204.989 30.08 206.189 29.852 206.813 29.852C207.437 29.828 207.953 29.888 208.361 30.032C209.465 30.464 210.041 31.136 210.089 32.048C209.753 32.84 208.493 33.944 206.309 35.36C205.805 35.672 205.397 35.936 205.085 36.152L201.953 38.384C201.785 38.648 201.665 38.9 201.593 39.14V39.176C201.641 39.296 201.941 39.464 202.493 39.68C203.069 39.896 203.561 40.088 203.969 40.256C204.929 40.688 205.781 41.276 206.525 42.02C206.765 42.284 206.921 42.68 206.993 43.208C207.065 43.712 206.981 44.18 206.741 44.612C206.525 45.044 206.129 45.356 205.553 45.548C204.977 45.74 204.173 45.656 203.141 45.296C201.629 44.624 199.841 43.124 197.777 40.796C197.537 41.636 197.297 42.464 197.057 43.28C196.841 44.072 196.601 44.888 196.337 45.728C195.977 46.544 195.137 46.928 193.817 46.88C193.289 46.88 192.809 46.772 192.377 46.556C191.969 46.34 191.729 46.052 191.657 45.692C191.465 45.164 191.369 44.768 191.369 44.504C191.369 44.264 191.429 43.976 191.549 43.64C192.101 42.248 192.449 41.144 192.593 40.328C192.737 39.488 192.833 38.996 192.881 38.852C192.209 38.42 191.813 37.736 191.693 36.8C191.549 35.888 191.765 35.072 192.341 34.352C193.109 34.064 193.661 33.848 193.997 33.704C194.141 32.792 194.381 31.808 194.717 30.752C195.317 28.856 195.773 27.212 196.085 25.82C196.421 24.428 196.889 22.856 197.489 21.104C198.113 19.328 198.665 17.54 199.145 15.74Z" fill="white"/>
<path d="M15.2069 0.00480951C11.6159 0.00480951 8.68966 2.93105 8.68966 6.52205V41.2807H1.08621C0.798127 41.2807 0.521846 41.3951 0.318143 41.5988C0.11444 41.8025 0 42.0788 0 42.3669V45.6255C0 50.42 3.89514 54.3152 8.68966 54.3152H30.4138V59.7462C30.4138 60.0343 30.5282 60.3106 30.7319 60.5143C30.9356 60.718 31.2119 60.8324 31.5 60.8324H61.9138C62.2019 60.8324 62.4782 60.718 62.6819 60.5143C62.8856 60.3106 63 60.0343 63 59.7462V20.6427C63 20.3547 62.8856 20.0784 62.6819 19.8747C62.4782 19.671 62.2019 19.5565 61.9138 19.5565H49.9655V6.5894C49.9655 2.97015 47.048 0.00480951 43.4483 0.00480951C43.331 0.00480951 43.2245 -0.00170773 43.1094 0.00480951C43.0415 -0.00160317 42.9731 -0.00160317 42.9052 0.00480951H15.2069ZM15.2069 2.17722H38.6277C37.5301 3.3839 36.9247 4.95821 36.931 6.5894V19.5565H31.5C31.2119 19.5565 30.9356 19.671 30.7319 19.8747C30.5282 20.0784 30.4138 20.3547 30.4138 20.6427V41.2133L10.8621 41.2807V6.52205C10.8621 4.09546 12.7803 2.17722 15.2069 2.17722ZM43.042 2.17722C43.1767 2.16419 43.3092 2.17722 43.4483 2.17722C45.8662 2.17722 47.7931 4.12371 47.7931 6.5894V19.5565H39.1034V6.5894C39.1034 4.26491 40.8197 2.3836 43.042 2.17722ZM13.0345 6.52205V8.69446H15.2069V6.52205H13.0345ZM17.3793 6.52205V8.69446H34.7586V6.52205H17.3793ZM13.0345 10.8669V13.0393H15.2069V10.8669H13.0345ZM17.3793 10.8669V13.0393H34.7586V10.8669H17.3793ZM13.0345 15.2117V17.3841H15.2069V15.2117H13.0345ZM17.3793 15.2117V17.3841H34.7586V15.2117H17.3793ZM13.0345 19.5565V21.7289H15.2069V19.5565H13.0345ZM17.3793 19.5565V21.7289H28.2414V19.5565H17.3793ZM32.5862 21.7289H60.8276V58.66H32.5862V53.4332C32.5926 53.3652 32.5926 53.2969 32.5862 53.229V42.2995C32.5926 42.2316 32.5926 42.1632 32.5862 42.0953V21.7289ZM34.4197 22.8152C34.1933 22.8892 33.9975 23.0356 33.8624 23.2319C33.7274 23.4282 33.6606 23.6634 33.6724 23.9014V30.4186C33.6724 30.7067 33.7869 30.983 33.9906 31.1867C34.1943 31.3904 34.4705 31.5048 34.7586 31.5048H58.6552C58.9433 31.5048 59.2195 31.3904 59.4232 31.1867C59.6269 30.983 59.7414 30.7067 59.7414 30.4186V23.9014C59.7414 23.6133 59.6269 23.337 59.4232 23.1333C59.2195 22.9296 58.9433 22.8152 58.6552 22.8152H34.7586C34.6464 22.7974 34.532 22.7974 34.4197 22.8152ZM13.0345 23.9014V26.0738H15.2069V23.9014H13.0345ZM17.3793 23.9014V26.0738H28.2414V23.9014H17.3793ZM35.8448 24.9876H57.569V29.3324H35.8448V24.9876ZM19.5517 28.2462V30.4186H28.2414V28.2462H19.5517ZM19.5517 32.591V34.7634H28.2414V32.591H19.5517ZM35.6406 32.591C35.3892 32.6391 35.1628 32.7745 35.0014 32.9732C34.8401 33.1719 34.7541 33.4213 34.7586 33.6772V38.0221C34.7586 38.3101 34.8731 38.5864 35.0768 38.7901C35.2805 38.9938 35.5567 39.1083 35.8448 39.1083H40.1897C40.4777 39.1083 40.754 38.9938 40.9577 38.7901C41.1614 38.5864 41.2759 38.3101 41.2759 38.0221V33.6772C41.2759 33.3891 41.1614 33.1129 40.9577 32.9092C40.754 32.7055 40.4777 32.591 40.1897 32.591H35.8448C35.7769 32.5846 35.7085 32.5846 35.6406 32.591ZM44.3303 32.591C44.0788 32.6391 43.8525 32.7745 43.6911 32.9732C43.5297 33.1719 43.4437 33.4213 43.4483 33.6772V38.0221C43.4483 38.3101 43.5627 38.5864 43.7664 38.7901C43.9701 38.9938 44.2464 39.1083 44.5345 39.1083H48.8793C49.1674 39.1083 49.4437 38.9938 49.6474 38.7901C49.8511 38.5864 49.9655 38.3101 49.9655 38.0221V33.6772C49.9655 33.3891 49.8511 33.1129 49.6474 32.9092C49.4437 32.7055 49.1674 32.591 48.8793 32.591H44.5345C44.4666 32.5846 44.3982 32.5846 44.3303 32.591ZM53.0199 32.591C52.7685 32.6391 52.5421 32.7745 52.3807 32.9732C52.2194 33.1719 52.1334 33.4213 52.1379 33.6772V38.0221C52.1379 38.3101 52.2524 38.5864 52.4561 38.7901C52.6598 38.9938 52.9361 39.1083 53.2241 39.1083H57.569C57.857 39.1083 58.1333 38.9938 58.337 38.7901C58.5407 38.5864 58.6552 38.3101 58.6552 38.0221V33.6772C58.6552 33.3891 58.5407 33.1129 58.337 32.9092C58.1333 32.7055 57.857 32.591 57.569 32.591H53.2241C53.1562 32.5846 53.0878 32.5846 53.0199 32.591ZM36.931 34.7634H39.1034V36.9358H36.931V34.7634ZM45.6207 34.7634H47.7931V36.9358H45.6207V34.7634ZM54.3103 34.7634H56.4828V36.9358H54.3103V34.7634ZM35.6406 41.2807C35.3892 41.3288 35.1628 41.4641 35.0014 41.6628C34.8401 41.8616 34.7541 42.1109 34.7586 42.3669V46.7117C34.7586 46.9998 34.8731 47.2761 35.0768 47.4798C35.2805 47.6835 35.5567 47.7979 35.8448 47.7979H40.1897C40.4777 47.7979 40.754 47.6835 40.9577 47.4798C41.1614 47.2761 41.2759 46.9998 41.2759 46.7117V42.3669C41.2759 42.0788 41.1614 41.8025 40.9577 41.5988C40.754 41.3951 40.4777 41.2807 40.1897 41.2807H35.8448C35.7769 41.2743 35.7085 41.2743 35.6406 41.2807ZM44.3303 41.2807C44.0788 41.3288 43.8525 41.4641 43.6911 41.6628C43.5297 41.8616 43.4437 42.1109 43.4483 42.3669V46.7117C43.4483 46.9998 43.5627 47.2761 43.7664 47.4798C43.9701 47.6835 44.2464 47.7979 44.5345 47.7979H48.8793C49.1674 47.7979 49.4437 47.6835 49.6474 47.4798C49.8511 47.2761 49.9655 46.9998 49.9655 46.7117V42.3669C49.9655 42.0788 49.8511 41.8025 49.6474 41.5988C49.4437 41.3951 49.1674 41.2807 48.8793 41.2807H44.5345C44.4666 41.2743 44.3982 41.2743 44.3303 41.2807ZM53.0199 41.2807C52.7685 41.3288 52.5421 41.4641 52.3807 41.6628C52.2194 41.8616 52.1334 42.1109 52.1379 42.3669V55.4014C52.1379 55.6894 52.2524 55.9657 52.4561 56.1694C52.6598 56.3731 52.9361 56.4876 53.2241 56.4876H57.569C57.857 56.4876 58.1333 56.3731 58.337 56.1694C58.5407 55.9657 58.6552 55.6894 58.6552 55.4014V42.3669C58.6552 42.0788 58.5407 41.8025 58.337 41.5988C58.1333 41.3951 57.857 41.2807 57.569 41.2807H53.2241C53.1562 41.2743 53.0878 41.2743 53.0199 41.2807ZM30.4138 43.3857V52.1427H8.68966C5.06172 52.1427 2.17241 49.2534 2.17241 45.6255V43.4531L30.4138 43.3857ZM36.931 43.4531H39.1034V45.6255H36.931V43.4531ZM45.6207 43.4531H47.7931V45.6255H45.6207V43.4531ZM54.3103 43.4531H56.4828V54.3152H54.3103V43.4531ZM35.6406 49.9703C35.3892 50.0184 35.1628 50.1538 35.0014 50.3525C34.8401 50.5512 34.7541 50.8006 34.7586 51.0565V55.4014C34.7586 55.6894 34.8731 55.9657 35.0768 56.1694C35.2805 56.3731 35.5567 56.4876 35.8448 56.4876H40.1897C40.4777 56.4876 40.754 56.3731 40.9577 56.1694C41.1614 55.9657 41.2759 55.6894 41.2759 55.4014V51.0565C41.2759 50.7685 41.1614 50.4922 40.9577 50.2885C40.754 50.0848 40.4777 49.9703 40.1897 49.9703H35.8448C35.7769 49.9639 35.7085 49.9639 35.6406 49.9703ZM44.3303 49.9703C44.0788 50.0184 43.8525 50.1538 43.6911 50.3525C43.5297 50.5512 43.4437 50.8006 43.4483 51.0565V55.4014C43.4483 55.6894 43.5627 55.9657 43.7664 56.1694C43.9701 56.3731 44.2464 56.4876 44.5345 56.4876H48.8793C49.1674 56.4876 49.4437 56.3731 49.6474 56.1694C49.8511 55.9657 49.9655 55.6894 49.9655 55.4014V51.0565C49.9655 50.7685 49.8511 50.4922 49.6474 50.2885C49.4437 50.0848 49.1674 49.9703 48.8793 49.9703H44.5345C44.4666 49.9639 44.3982 49.9639 44.3303 49.9703ZM36.931 52.1427H39.1034V54.3152H36.931V52.1427ZM45.6207 52.1427H47.7931V54.3152H45.6207V52.1427Z" fill="white"/>
</svg>
